<mxfile host="app.diagrams.net" modified="2024-03-07T19:05:58.164Z" agent="Mozilla/5.0 (Windows NT 10.0; Win64; x64) AppleWebKit/537.36 (KHTML, like Gecko) Chrome/122.0.0.0 Safari/537.36" etag="p-O3LBJNfW6Ytnc_auMn" version="23.1.5" type="github">
  <diagram name="Page-1" id="ehKQ3WQUC7TIu7518hB3">
    <mxGraphModel dx="1050" dy="557" grid="1" gridSize="10" guides="1" tooltips="1" connect="1" arrows="1" fold="1" page="1" pageScale="1" pageWidth="850" pageHeight="1100" math="0" shadow="0">
      <root>
        <mxCell id="0" />
        <mxCell id="1" parent="0" />
        <mxCell id="zhrE1ybZ0f5dyjA12foS-1" value="" style="whiteSpace=wrap;html=1;aspect=fixed;" vertex="1" parent="1">
          <mxGeometry x="200" y="110" width="80" height="80" as="geometry" />
        </mxCell>
        <mxCell id="zhrE1ybZ0f5dyjA12foS-2" value="Chatbot" style="text;html=1;align=center;verticalAlign=middle;whiteSpace=wrap;rounded=0;" vertex="1" parent="1">
          <mxGeometry x="210" y="135" width="60" height="30" as="geometry" />
        </mxCell>
        <mxCell id="zhrE1ybZ0f5dyjA12foS-3" value="Chunk of Code&lt;br&gt;this will send an time slot (1,, 2 3) to your other cloud funciton" style="text;html=1;align=center;verticalAlign=middle;whiteSpace=wrap;rounded=0;" vertex="1" parent="1">
          <mxGeometry x="180" y="190" width="120" height="100" as="geometry" />
        </mxCell>
        <mxCell id="zhrE1ybZ0f5dyjA12foS-4" value="Nodejs server" style="whiteSpace=wrap;html=1;" vertex="1" parent="1">
          <mxGeometry x="480" y="120" width="120" height="60" as="geometry" />
        </mxCell>
        <mxCell id="zhrE1ybZ0f5dyjA12foS-5" value="Here this will recieve the time slot" style="text;html=1;align=center;verticalAlign=middle;whiteSpace=wrap;rounded=0;" vertex="1" parent="1">
          <mxGeometry x="510" y="210" width="60" height="50" as="geometry" />
        </mxCell>
        <mxCell id="zhrE1ybZ0f5dyjA12foS-6" value="" style="endArrow=classic;html=1;rounded=0;exitX=1;exitY=0.5;exitDx=0;exitDy=0;entryX=0;entryY=0.5;entryDx=0;entryDy=0;" edge="1" parent="1" source="zhrE1ybZ0f5dyjA12foS-1" target="zhrE1ybZ0f5dyjA12foS-4">
          <mxGeometry width="50" height="50" relative="1" as="geometry">
            <mxPoint x="400" y="320" as="sourcePoint" />
            <mxPoint x="450" y="270" as="targetPoint" />
          </mxGeometry>
        </mxCell>
        <mxCell id="zhrE1ybZ0f5dyjA12foS-7" value="" style="endArrow=classic;html=1;rounded=0;exitX=0.997;exitY=0.63;exitDx=0;exitDy=0;exitPerimeter=0;" edge="1" parent="1" source="zhrE1ybZ0f5dyjA12foS-4" target="zhrE1ybZ0f5dyjA12foS-8">
          <mxGeometry width="50" height="50" relative="1" as="geometry">
            <mxPoint x="400" y="320" as="sourcePoint" />
            <mxPoint x="450" y="270" as="targetPoint" />
          </mxGeometry>
        </mxCell>
        <mxCell id="zhrE1ybZ0f5dyjA12foS-8" value="SQL on google cloud" style="rounded=0;whiteSpace=wrap;html=1;" vertex="1" parent="1">
          <mxGeometry x="710" y="190" width="120" height="60" as="geometry" />
        </mxCell>
        <mxCell id="zhrE1ybZ0f5dyjA12foS-9" value="From here we will check if slot available" style="text;html=1;align=center;verticalAlign=middle;whiteSpace=wrap;rounded=0;" vertex="1" parent="1">
          <mxGeometry x="750" y="290" width="60" height="30" as="geometry" />
        </mxCell>
        <mxCell id="zhrE1ybZ0f5dyjA12foS-10" value="if yes toh book kardo" style="text;html=1;align=center;verticalAlign=middle;resizable=0;points=[];autosize=1;strokeColor=none;fillColor=none;" vertex="1" parent="1">
          <mxGeometry x="705" y="368" width="130" height="30" as="geometry" />
        </mxCell>
        <mxCell id="zhrE1ybZ0f5dyjA12foS-11" value="if no toh nahi hua wo bhedo" style="text;html=1;align=center;verticalAlign=middle;resizable=0;points=[];autosize=1;strokeColor=none;fillColor=none;" vertex="1" parent="1">
          <mxGeometry x="690" y="410" width="170" height="30" as="geometry" />
        </mxCell>
        <mxCell id="zhrE1ybZ0f5dyjA12foS-12" style="edgeStyle=orthogonalEdgeStyle;rounded=0;orthogonalLoop=1;jettySize=auto;html=1;entryX=0.837;entryY=0.977;entryDx=0;entryDy=0;entryPerimeter=0;" edge="1" parent="1" source="zhrE1ybZ0f5dyjA12foS-8" target="zhrE1ybZ0f5dyjA12foS-4">
          <mxGeometry relative="1" as="geometry" />
        </mxCell>
        <mxCell id="zhrE1ybZ0f5dyjA12foS-13" value="isko khaali&amp;nbsp;&lt;br&gt;1/0 bhejo" style="text;html=1;align=center;verticalAlign=middle;resizable=0;points=[];autosize=1;strokeColor=none;fillColor=none;" vertex="1" parent="1">
          <mxGeometry x="600" y="233" width="80" height="40" as="geometry" />
        </mxCell>
        <mxCell id="zhrE1ybZ0f5dyjA12foS-14" value="&lt;br&gt;React" style="rounded=0;whiteSpace=wrap;html=1;" vertex="1" parent="1">
          <mxGeometry x="180" y="368" width="120" height="60" as="geometry" />
        </mxCell>
        <mxCell id="zhrE1ybZ0f5dyjA12foS-15" value="Isme chatbot integrate" style="text;html=1;align=center;verticalAlign=middle;whiteSpace=wrap;rounded=0;" vertex="1" parent="1">
          <mxGeometry x="210" y="450" width="60" height="30" as="geometry" />
        </mxCell>
        <mxCell id="zhrE1ybZ0f5dyjA12foS-16" value="Landing page" style="text;html=1;align=center;verticalAlign=middle;whiteSpace=wrap;rounded=0;" vertex="1" parent="1">
          <mxGeometry x="310" y="380" width="60" height="30" as="geometry" />
        </mxCell>
        <mxCell id="zhrE1ybZ0f5dyjA12foS-17" value="Steps:&lt;br&gt;1. Create nodejs on google cloud&lt;br&gt;2. Connect google sql with google cloud nodejs&lt;br&gt;3. Write a stored procedure to check for a given doc id whether a given slot is available or not if available book it and return 1 else just return 0&lt;br&gt;4. Write a procedure to delete all appointments" style="text;html=1;align=center;verticalAlign=middle;whiteSpace=wrap;rounded=0;" vertex="1" parent="1">
          <mxGeometry x="425" y="470" width="250" height="30" as="geometry" />
        </mxCell>
      </root>
    </mxGraphModel>
  </diagram>
</mxfile>
